<svg xmlns="http://www.w3.org/2000/svg" version="1.1" xmlns:xlink="http://www.w3.org/1999/xlink" xmlns:svgjs="http://svgjs.dev/svgjs" width="1000" height="1000" viewBox="0 0 1000 1000"><rect width="1000" height="1000" fill="#6936f5"></rect><g transform="matrix(0.7,0,0,0.7,149.57575757575756,329.5350055704471)"><svg viewBox="0 0 396 193" data-background-color="#6936f5" preserveAspectRatio="xMidYMid meet" height="487" width="1000" xmlns="http://www.w3.org/2000/svg" xmlns:xlink="http://www.w3.org/1999/xlink"><g id="tight-bounds" transform="matrix(1,0,0,1,0.2400000000000091,0.008489072759488181)"><svg viewBox="0 0 395.52 192.98302185448102" height="192.98302185448102" width="395.52"><g><svg viewBox="0 0 395.52 192.98302185448102" height="192.98302185448102" width="395.52"><g><svg viewBox="0 0 395.52 192.98302185448102" height="192.98302185448102" width="395.52"><g><svg viewBox="0 0 395.52 192.98302185448102" height="192.98302185448102" width="395.52"><g><svg viewBox="0 0 395.52 155.04548286604359" height="155.04548286604359" width="395.52"><g transform="matrix(1,0,0,1,0,0)"><svg width="395.52" viewBox="1.5 -33.7 195.15 71.85" height="155.04548286604359" data-palette-color="#ffffff"><svg></svg><svg></svg><g class="undefined-text-0" data-fill-palette-color="primary" id="text-0"><path d="M14.85-33.7v24.6c0 3.1-0.757 5.39-2.27 6.87-1.52 1.487-3.563 2.23-6.13 2.23v0c-2.067 0-3.717-0.35-4.95-1.05v0-4.75c1.367 0.833 2.733 1.25 4.1 1.25v0c2.733 0 4.1-1.45 4.1-4.35v0-24.8zM32.65 0v0h-10.6v-33.7h10.5c5 0 9.1 1.55 12.3 4.65 3.2 3.1 4.8 7.05 4.8 11.85v0c0 5-1.507 9.117-4.52 12.35-3.02 3.233-7.18 4.85-12.48 4.85zM32.45-29.3v0h-5.15v24.95h5.3c3.833 0 6.75-1.2 8.75-3.6 2-2.4 3-5.483 3-9.25v0c0-3.467-1.083-6.35-3.25-8.65-2.167-2.3-5.05-3.45-8.65-3.45zM61.05-13.2l-1 13.2h-5.1l2.6-33.7h6.1l4.5 12.3c0.8 2.1 1.6 4.323 2.4 6.67 0.8 2.353 1.4 4.18 1.8 5.48v0l0.65 1.95c1.533-4.533 3.217-9.233 5.05-14.1v0l4.7-12.3h6.1l3.1 33.7h-5.1l-1.2-13.2-1.05-13.5c-1.5 4.233-3.133 8.733-4.9 13.5v0l-4.7 12.55h-4.05l-4.55-12.55-4.55-13.3c0 1.467-0.267 5.9-0.8 13.3z" fill="#ffffff" fill-rule="nonzero" stroke="none" stroke-width="1" stroke-linecap="butt" stroke-linejoin="miter" stroke-miterlimit="10" stroke-dasharray="" stroke-dashoffset="0" font-family="none" font-weight="none" font-size="none" text-anchor="none" style="mix-blend-mode: normal" data-fill-palette-color="primary" opacity="1"></path><path d="M9.15 4.05v33.7h-5.1v-33.7zM22.5 24.55l-1 13.2h-5.1l2.6-33.7h6.1l4.5 12.3c0.8 2.1 1.6 4.323 2.4 6.67 0.8 2.353 1.4 4.18 1.8 5.48v0l0.65 1.95c1.533-4.533 3.217-9.233 5.05-14.1v0l4.7-12.3h6.1l3.1 33.7h-5.1l-1.2-13.2-1.05-13.5c-1.5 4.233-3.133 8.733-4.9 13.5v0l-4.7 12.55h-4.05l-4.55-12.55-4.55-13.3c0 1.467-0.267 5.9-0.8 13.3zM70.2 25.8v0h-4.8v11.95h-5.15v-33.7h9.65c3.867 0 6.933 1.023 9.2 3.07 2.267 2.053 3.4 4.68 3.4 7.88 0 3.2-1.14 5.8-3.42 7.8-2.287 2-5.247 3-8.88 3zM69.7 8.3v0h-4.3v13.25h4.4c2.433 0 4.293-0.6 5.58-1.8 1.28-1.2 1.92-2.783 1.92-4.75v0c0-2.067-0.65-3.7-1.95-4.9-1.3-1.2-3.183-1.8-5.65-1.8zM113.2 8.12c2.767 3.153 4.15 7.363 4.15 12.63 0 5.267-1.39 9.483-4.17 12.65-2.787 3.167-6.547 4.75-11.28 4.75v0c-4.7 0-8.457-1.583-11.27-4.75-2.82-3.167-4.23-7.383-4.23-12.65v0c0-5.233 1.4-9.433 4.2-12.6 2.8-3.167 6.55-4.75 11.25-4.75v0c4.8 0 8.583 1.573 11.35 4.72zM94.48 11.57c-1.787 2.253-2.68 5.313-2.68 9.18 0 3.867 0.917 6.933 2.75 9.2 1.833 2.267 4.283 3.4 7.35 3.4v0c3.167 0 5.633-1.117 7.4-3.35 1.767-2.233 2.65-5.317 2.65-9.25v0c0-3.9-0.89-6.967-2.67-9.2-1.787-2.233-4.263-3.35-7.43-3.35v0c-3.133 0-5.59 1.123-7.37 3.37zM132.85 8.35v0h-4.4v12.3h4.65c2.133 0 3.75-0.56 4.85-1.68 1.1-1.113 1.65-2.603 1.65-4.47v0c0-4.1-2.25-6.15-6.75-6.15zM128.45 24.95v12.8h-5.15v-33.7h9.4c3.867 0 6.85 0.94 8.95 2.82 2.1 1.887 3.15 4.447 3.15 7.68v0c-0.033 2.367-0.633 4.373-1.8 6.02-1.167 1.653-2.783 2.847-4.85 3.58v0l8.8 13.6h-6.15l-7.9-12.8zM171.95 4.05v4.3h-8.85v29.4h-5.15v-29.4h-8.8v-4.3zM196.65 28.55v0c0 2.967-1.05 5.3-3.15 7-2.1 1.7-4.817 2.55-8.15 2.55v0c-3.7 0-6.767-0.717-9.2-2.15v0-5.35c2.633 1.967 5.683 2.95 9.15 2.95v0c1.833 0 3.283-0.427 4.35-1.28 1.067-0.847 1.6-2.02 1.6-3.52v0c0-0.9-0.317-1.727-0.95-2.48-0.633-0.747-1.317-1.313-2.05-1.7-0.733-0.38-1.833-0.903-3.3-1.57v0c-0.867-0.4-1.473-0.683-1.82-0.85-0.353-0.167-0.93-0.467-1.73-0.9-0.8-0.433-1.39-0.8-1.77-1.1-0.387-0.3-0.863-0.717-1.43-1.25-0.567-0.533-0.973-1.067-1.22-1.6-0.253-0.533-0.487-1.16-0.7-1.88-0.22-0.713-0.33-1.487-0.33-2.32v0c0-2.867 1.043-5.133 3.13-6.8 2.08-1.667 4.77-2.5 8.07-2.5v0c3.033 0 5.617 0.533 7.75 1.6v0 5.1c-2.233-1.4-4.767-2.1-7.6-2.1v0c-1.833 0-3.273 0.407-4.32 1.22-1.053 0.82-1.58 1.897-1.58 3.23 0 1.333 0.517 2.4 1.55 3.2 1.033 0.8 2.617 1.667 4.75 2.6v0c1.4 0.6 2.493 1.117 3.28 1.55 0.78 0.433 1.68 1.04 2.7 1.82 1.013 0.787 1.763 1.72 2.25 2.8 0.48 1.087 0.72 2.33 0.72 3.73z" fill="#ffffff" fill-rule="nonzero" stroke="none" stroke-width="1" stroke-linecap="butt" stroke-linejoin="miter" stroke-miterlimit="10" stroke-dasharray="" stroke-dashoffset="0" font-family="none" font-weight="none" font-size="none" text-anchor="none" style="mix-blend-mode: normal" data-fill-palette-color="primary" opacity="1"></path></g></svg></g></svg></g><g transform="matrix(1,0,0,1,0,171.8923369071651)"><svg viewBox="0 0 232.209792 21.09068494731594" height="21.09068494731594" width="232.209792"><g transform="matrix(1,0,0,1,0,0)"><svg width="232.209792" viewBox="5.35 -42.95 601.64 54.650000000000006" height="21.09068494731594" data-palette-color="#ffffff"><path d="M18.6-37.9Q31-37.9 31-26.6L31-26.6Q31-21.1 27.9-18.23 24.8-15.35 18.6-15.35L18.6-15.35 10.2-15.35 10.2 0 5.35 0 5.35-37.9 18.6-37.9ZM26.05-26.6Q26.05-30.3 24.2-31.98 22.35-33.65 18.6-33.65L18.6-33.65 10.2-33.65 10.2-19.65 18.6-19.65Q26-19.65 26.05-26.6L26.05-26.6ZM50.55-28.25L51.7-28.25 51.7-23.85 50.55-23.85Q46.25-23.85 42.2-20.4L42.2-20.4 42.2 0 37.5 0 37.5-27.65 42.2-27.65 42.2-24.55Q46.3-28.25 50.55-28.25L50.55-28.25ZM60.9-13.45Q61-8.85 63.2-6.1 65.4-3.35 70.2-3.35L70.2-3.35Q73.85-3.35 78.2-5.4L78.2-5.4 79.65-1.5Q75.1 0.85 69.8 0.85L69.8 0.85Q65.4 0.85 62.3-1 59.2-2.85 57.6-6.15 56-9.45 56-13.85L56-13.85Q56-18.5 57.67-21.78 59.35-25.05 62.2-26.75 65.05-28.45 68.6-28.45L68.6-28.45Q74.05-28.45 77.15-25.05 80.25-21.65 80.25-15.3L80.25-15.3 80.25-13.45 60.9-13.45ZM68.6-24.25Q62.4-24.25 61.2-17.4L61.2-17.4 75.3-17.4Q75.05-20.9 73.4-22.58 71.75-24.25 68.6-24.25L68.6-24.25ZM118.04-28.25Q123.09-28.25 125.52-25.55 127.94-22.85 127.94-16.65L127.94-16.65 127.94 0 123.24 0 123.24-16.65Q123.24-20.6 121.97-22.23 120.69-23.85 117.39-23.85L117.39-23.85Q113.49-23.85 109.59-20.1L109.59-20.1Q109.79-18.7 109.79-16.65L109.79-16.65 109.79 0 105.09 0 105.09-16.65Q105.09-20.6 103.82-22.23 102.54-23.85 99.24-23.85L99.24-23.85Q95.44-23.85 91.64-20.45L91.64-20.45 91.64 0 86.94 0 86.94-27.65 91.64-27.65 91.64-24.7Q95.69-28.25 99.89-28.25L99.89-28.25Q103.24-28.25 105.39-27.13 107.54-26 108.64-23.55L108.64-23.55Q113.19-28.25 118.04-28.25L118.04-28.25ZM135.84-32.85L135.84-40.4 140.54-40.4 140.54-32.85 135.84-32.85ZM135.84 0L135.84-27.65 140.54-27.65 140.54 0 135.84 0ZM167.79-27.65L172.49-27.65 172.49 0 167.79 0 167.79-2.95Q163.69 0.6 159.34 0.6L159.34 0.6Q154.24 0.6 151.76-2.1 149.29-4.8 149.29-10.95L149.29-10.95 149.29-27.65 153.99-27.65 153.99-10.95Q153.99-7.05 155.31-5.4 156.64-3.75 159.99-3.75L159.99-3.75Q163.89-3.75 167.79-7.15L167.79-7.15 167.79-27.65ZM212.59-28.25Q217.64-28.25 220.06-25.55 222.49-22.85 222.49-16.65L222.49-16.65 222.49 0 217.79 0 217.79-16.65Q217.79-20.6 216.51-22.23 215.24-23.85 211.94-23.85L211.94-23.85Q208.04-23.85 204.14-20.1L204.14-20.1Q204.34-18.7 204.34-16.65L204.34-16.65 204.34 0 199.64 0 199.64-16.65Q199.64-20.6 198.36-22.23 197.09-23.85 193.79-23.85L193.79-23.85Q189.99-23.85 186.19-20.45L186.19-20.45 186.19 0 181.49 0 181.49-27.65 186.19-27.65 186.19-24.7Q190.24-28.25 194.44-28.25L194.44-28.25Q197.79-28.25 199.94-27.13 202.09-26 203.19-23.55L203.19-23.55Q207.74-28.25 212.59-28.25L212.59-28.25ZM253.08 0.85Q246.63 0.8 243.16-3.15 239.68-7.1 239.68-13.85L239.68-13.85Q239.68-20.6 243.16-24.5 246.63-28.4 253.08-28.45L253.08-28.45Q255.33-28.45 256.96-28.13 258.58-27.8 260.43-27.05L260.43-27.05 260.43-22.5Q258.63-23.35 257-23.7 255.38-24.05 253.43-24.05L253.43-24.05Q248.78-24 246.68-21.28 244.58-18.55 244.58-13.9L244.58-13.9Q244.58-9.15 246.68-6.35 248.78-3.55 253.33-3.5L253.33-3.5Q256.88-3.5 261.08-5.65L261.08-5.65 262.58-1.55Q258.03 0.85 253.08 0.85L253.08 0.85ZM277.18-27.65Q281.58-27.65 283.88-26.18 286.18-24.7 286.93-22.23 287.68-19.75 287.68-16L287.68-16 287.68 0 282.98 0 282.98-2.75Q281.08-0.95 279.18-0.15 277.28 0.65 275.08 0.65L275.08 0.65Q272.48 0.65 270.38-0.48 268.28-1.6 267.05-3.73 265.83-5.85 265.83-8.75L265.83-8.75Q265.83-13.25 268.63-15.73 271.43-18.2 276.18-18.2L276.18-18.2Q279.93-18.2 282.93-16.55L282.93-16.55Q282.88-19 282.43-20.45 281.98-21.9 280.58-22.68 279.18-23.45 276.43-23.45L276.43-23.45 272.73-23.45 272.73-27.65 277.18-27.65ZM275.73-3.4Q277.43-3.4 279.3-4.2 281.18-5 282.98-6.6L282.98-6.6 282.98-12.9Q280.18-14.3 276.88-14.3L276.88-14.3Q274.23-14.3 272.43-13.03 270.63-11.75 270.63-8.75L270.63-8.75Q270.63-5.95 272.15-4.67 273.68-3.4 275.73-3.4L275.73-3.4ZM308.48-28.25L309.63-28.25 309.63-23.85 308.48-23.85Q304.18-23.85 300.13-20.4L300.13-20.4 300.13 0 295.43 0 295.43-27.65 300.13-27.65 300.13-24.55Q304.23-28.25 308.48-28.25L308.48-28.25ZM324.02 0.85Q320.97 0.85 318.62 0.35 316.27-0.15 313.72-1.35L313.72-1.35 313.72-6Q318.47-3.35 324.02-3.35L324.02-3.35Q326.82-3.35 328.05-4.48 329.27-5.6 329.27-7.45L329.27-7.45Q329.27-9.25 328.3-10.1 327.32-10.95 325.12-11.55L325.12-11.55 321.87-12.35Q318.37-13.2 316.37-15.05 314.37-16.9 314.37-20.5L314.37-20.5Q314.37-24.25 316.82-26.35 319.27-28.45 324.02-28.45L324.02-28.45Q326.47-28.45 328.57-27.98 330.67-27.5 332.77-26.65L332.77-26.65 332.77-22.25Q330.72-23.2 328.72-23.73 326.72-24.25 324.17-24.25L324.17-24.25Q321.52-24.25 320.35-23.23 319.17-22.2 319.17-20.65L319.17-20.65Q319.17-18.95 320.2-18.07 321.22-17.2 323.17-16.7L323.17-16.7 326.47-15.95Q328.97-15.35 330.6-14.45 332.22-13.55 333.15-11.93 334.07-10.3 334.07-7.6L334.07-7.6Q334.07-3.55 331.35-1.35 328.62 0.85 324.02 0.85L324.02 0.85ZM360.77-38.6Q359.02-38.6 358.39-37.88 357.77-37.15 357.77-35.15L357.77-35.15 357.77-27.65 363.27-27.65 363.27-23.25 357.77-23.25 357.77 0 353.07 0 353.07-23.25 349.67-23.25 349.67-27.65 353.07-27.65 353.07-36.4Q353.07-39.95 354.72-41.45 356.37-42.95 360.12-42.95L360.12-42.95Q361.32-42.95 363.27-42.6L363.27-42.6 363.27-38.3Q362.12-38.6 360.77-38.6L360.77-38.6ZM382.06-28.25L383.21-28.25 383.21-23.85 382.06-23.85Q377.76-23.85 373.71-20.4L373.71-20.4 373.71 0 369.01 0 369.01-27.65 373.71-27.65 373.71-24.55Q377.81-28.25 382.06-28.25L382.06-28.25ZM401.16 0.85Q396.76 0.85 393.69-1.07 390.61-3 389.06-6.33 387.51-9.65 387.51-13.8L387.51-13.8Q387.51-17.95 389.06-21.28 390.61-24.6 393.69-26.53 396.76-28.45 401.16-28.45L401.16-28.45Q405.56-28.45 408.64-26.53 411.71-24.6 413.24-21.28 414.76-17.95 414.76-13.8L414.76-13.8Q414.76-9.65 413.24-6.33 411.71-3 408.64-1.07 405.56 0.85 401.16 0.85L401.16 0.85ZM401.16-3.4Q405.31-3.4 407.59-6.3 409.86-9.2 409.86-13.8L409.86-13.8Q409.86-18.4 407.59-21.28 405.31-24.15 401.16-24.15L401.16-24.15Q397.01-24.15 394.71-21.28 392.41-18.4 392.41-13.8L392.41-13.8Q392.41-9.2 394.71-6.3 397.01-3.4 401.16-3.4L401.16-3.4ZM453.16-28.25Q458.21-28.25 460.63-25.55 463.06-22.85 463.06-16.65L463.06-16.65 463.06 0 458.36 0 458.36-16.65Q458.36-20.6 457.09-22.23 455.81-23.85 452.51-23.85L452.51-23.85Q448.61-23.85 444.71-20.1L444.71-20.1Q444.91-18.7 444.91-16.65L444.91-16.65 444.91 0 440.21 0 440.21-16.65Q440.21-20.6 438.94-22.23 437.66-23.85 434.36-23.85L434.36-23.85Q430.56-23.85 426.76-20.45L426.76-20.45 426.76 0 422.06 0 422.06-27.65 426.76-27.65 426.76-24.7Q430.81-28.25 435.01-28.25L435.01-28.25Q438.36-28.25 440.51-27.13 442.66-26 443.76-23.55L443.76-23.55Q448.31-28.25 453.16-28.25L453.16-28.25ZM480.71 5.7Q479.06 5.7 477.86 5.45L477.86 5.45 477.86 1.15Q478.86 1.35 480.26 1.35L480.26 1.35Q481.51 1.35 482.13 0.93 482.76 0.5 483.03-0.63 483.31-1.75 483.31-3.95L483.31-3.95 483.31-37.9 488.16-37.9 488.16-3.65Q488.16 0.15 487.51 2.13 486.86 4.1 485.31 4.9 483.76 5.7 480.71 5.7L480.71 5.7ZM506.5-27.65Q510.9-27.65 513.2-26.18 515.5-24.7 516.25-22.23 517-19.75 517-16L517-16 517 0 512.3 0 512.3-2.75Q510.4-0.95 508.5-0.15 506.6 0.65 504.4 0.65L504.4 0.65Q501.8 0.65 499.7-0.48 497.6-1.6 496.38-3.73 495.15-5.85 495.15-8.75L495.15-8.75Q495.15-13.25 497.95-15.73 500.75-18.2 505.5-18.2L505.5-18.2Q509.25-18.2 512.25-16.55L512.25-16.55Q512.2-19 511.75-20.45 511.3-21.9 509.9-22.68 508.5-23.45 505.75-23.45L505.75-23.45 502.05-23.45 502.05-27.65 506.5-27.65ZM505.05-3.4Q506.75-3.4 508.63-4.2 510.5-5 512.3-6.6L512.3-6.6 512.3-12.9Q509.5-14.3 506.2-14.3L506.2-14.3Q503.55-14.3 501.75-13.03 499.95-11.75 499.95-8.75L499.95-8.75Q499.95-5.95 501.48-4.67 503-3.4 505.05-3.4L505.05-3.4ZM537.45-28.45Q543.05-28.45 546.38-24.7 549.7-20.95 549.7-13.8L549.7-13.8Q549.7-6.65 546.38-2.9 543.05 0.85 537.45 0.85L537.45 0.85Q533.4 0.85 529.45-2.5L529.45-2.5 529.45 11.7 524.75 11.7 524.75-27.65 529.45-27.65 529.45-25.05Q533.45-28.45 537.45-28.45L537.45-28.45ZM536.8-3.5Q540.75-3.5 542.8-6.13 544.85-8.75 544.85-13.8L544.85-13.8Q544.85-18.85 542.8-21.45 540.75-24.05 536.8-24.05L536.8-24.05Q533.05-24.05 529.45-20.95L529.45-20.95 529.45-6.6Q533.15-3.5 536.8-3.5L536.8-3.5ZM565.55-27.65Q569.95-27.65 572.25-26.18 574.55-24.7 575.3-22.23 576.05-19.75 576.05-16L576.05-16 576.05 0 571.35 0 571.35-2.75Q569.45-0.95 567.55-0.15 565.65 0.65 563.45 0.65L563.45 0.65Q560.85 0.65 558.75-0.48 556.65-1.6 555.42-3.73 554.2-5.85 554.2-8.75L554.2-8.75Q554.2-13.25 557-15.73 559.8-18.2 564.55-18.2L564.55-18.2Q568.3-18.2 571.3-16.55L571.3-16.55Q571.25-19 570.8-20.45 570.35-21.9 568.95-22.68 567.55-23.45 564.8-23.45L564.8-23.45 561.1-23.45 561.1-27.65 565.55-27.65ZM564.1-3.4Q565.8-3.4 567.67-4.2 569.55-5 571.35-6.6L571.35-6.6 571.35-12.9Q568.55-14.3 565.25-14.3L565.25-14.3Q562.6-14.3 560.8-13.03 559-11.75 559-8.75L559-8.75Q559-5.95 560.52-4.67 562.05-3.4 564.1-3.4L564.1-3.4ZM596.94-28.25Q602.04-28.25 604.52-25.55 606.99-22.85 606.99-16.65L606.99-16.65 606.99 0 602.29 0 602.29-16.65Q602.29-20.55 600.97-22.2 599.64-23.85 596.29-23.85L596.29-23.85Q592.39-23.85 588.49-20.45L588.49-20.45 588.49 0 583.79 0 583.79-27.65 588.49-27.65 588.49-24.7Q592.59-28.25 596.94-28.25L596.94-28.25Z" opacity="1" transform="matrix(1,0,0,1,0,0)" fill="#ffffff" class="undefined-text-1" data-fill-palette-color="secondary" id="text-1"></path></svg></g></svg></g></svg></g></svg></g></svg></g><defs></defs></svg><rect width="395.52" height="192.98302185448102" fill="none" stroke="none" visibility="hidden"></rect></g></svg></g></svg>